<mxfile host="app.diagrams.net" modified="2024-06-17T19:31:13.200Z" agent="Mozilla/5.0 (Windows NT 10.0; Win64; x64) AppleWebKit/537.36 (KHTML, like Gecko) Chrome/125.0.0.0 Safari/537.36 Edg/125.0.0.0" etag="f9O6DdWS9z62RwmyAmCd" version="24.5.5" type="google">
  <diagram name="Página-1" id="n7stb-0KWGo2p6z_cooq">
    <mxGraphModel grid="1" page="1" gridSize="10" guides="1" tooltips="1" connect="1" arrows="1" fold="1" pageScale="1" pageWidth="827" pageHeight="1169" math="0" shadow="0">
      <root>
        <mxCell id="0" />
        <mxCell id="1" parent="0" />
        <mxCell id="biodw5Qi9P_IrCiAWEpT-1" value="usuario&amp;nbsp;" style="rounded=0;whiteSpace=wrap;html=1;" vertex="1" parent="1">
          <mxGeometry x="310" y="-45" width="120" height="60" as="geometry" />
        </mxCell>
        <mxCell id="biodw5Qi9P_IrCiAWEpT-6" value="Id_usuario" style="ellipse;whiteSpace=wrap;html=1;" vertex="1" parent="1">
          <mxGeometry x="170" y="-120" width="90" height="60" as="geometry" />
        </mxCell>
        <mxCell id="biodw5Qi9P_IrCiAWEpT-7" value="nombresapellidos" style="ellipse;whiteSpace=wrap;html=1;" vertex="1" parent="1">
          <mxGeometry x="260" y="-160" width="90" height="50" as="geometry" />
        </mxCell>
        <mxCell id="biodw5Qi9P_IrCiAWEpT-9" value="contraseña" style="ellipse;whiteSpace=wrap;html=1;rotation=0;" vertex="1" parent="1">
          <mxGeometry x="380" y="-180" width="80" height="50" as="geometry" />
        </mxCell>
        <mxCell id="biodw5Qi9P_IrCiAWEpT-10" value="hojas de vida&amp;nbsp;" style="rounded=0;whiteSpace=wrap;html=1;" vertex="1" parent="1">
          <mxGeometry x="-10" y="185" width="120" height="60" as="geometry" />
        </mxCell>
        <mxCell id="biodw5Qi9P_IrCiAWEpT-11" value="Id_hojadevida" style="ellipse;whiteSpace=wrap;html=1;" vertex="1" parent="1">
          <mxGeometry x="50" y="40" width="90" height="60" as="geometry" />
        </mxCell>
        <mxCell id="biodw5Qi9P_IrCiAWEpT-13" value="correo" style="ellipse;whiteSpace=wrap;html=1;" vertex="1" parent="1">
          <mxGeometry x="140" y="-45" width="70" height="50" as="geometry" />
        </mxCell>
        <mxCell id="biodw5Qi9P_IrCiAWEpT-14" value="salario_busca" style="ellipse;whiteSpace=wrap;html=1;" vertex="1" parent="1">
          <mxGeometry x="-70" y="30" width="90" height="60" as="geometry" />
        </mxCell>
        <mxCell id="biodw5Qi9P_IrCiAWEpT-15" value="categoria_deemp&amp;nbsp;" style="ellipse;whiteSpace=wrap;html=1;" vertex="1" parent="1">
          <mxGeometry x="-160" y="100" width="100" height="60" as="geometry" />
        </mxCell>
        <mxCell id="biodw5Qi9P_IrCiAWEpT-29" value="redacta" style="shape=rhombus;double=1;perimeter=rhombusPerimeter;whiteSpace=wrap;html=1;align=center;" vertex="1" parent="1">
          <mxGeometry x="160" y="110" width="120" height="60" as="geometry" />
        </mxCell>
        <mxCell id="biodw5Qi9P_IrCiAWEpT-33" value="" style="edgeStyle=entityRelationEdgeStyle;fontSize=12;html=1;endArrow=ERoneToMany;rounded=0;entryX=0;entryY=0.75;entryDx=0;entryDy=0;exitX=0.5;exitY=0;exitDx=0;exitDy=0;" edge="1" parent="1" source="biodw5Qi9P_IrCiAWEpT-29" target="biodw5Qi9P_IrCiAWEpT-1">
          <mxGeometry width="100" height="100" relative="1" as="geometry">
            <mxPoint x="640" y="490" as="sourcePoint" />
            <mxPoint x="490" y="390" as="targetPoint" />
            <Array as="points">
              <mxPoint x="560" y="480" />
              <mxPoint x="560" y="520" />
              <mxPoint x="450" y="380" />
              <mxPoint x="570" y="480" />
              <mxPoint x="570" y="490" />
              <mxPoint x="550" y="480" />
            </Array>
          </mxGeometry>
        </mxCell>
        <mxCell id="biodw5Qi9P_IrCiAWEpT-34" value="" style="edgeStyle=entityRelationEdgeStyle;fontSize=12;html=1;endArrow=ERoneToMany;rounded=0;entryX=0;entryY=0.5;entryDx=0;entryDy=0;exitX=1.033;exitY=0.633;exitDx=0;exitDy=0;exitPerimeter=0;" edge="1" parent="1" source="biodw5Qi9P_IrCiAWEpT-10" target="biodw5Qi9P_IrCiAWEpT-29">
          <mxGeometry width="100" height="100" relative="1" as="geometry">
            <mxPoint x="410" y="560" as="sourcePoint" />
            <mxPoint x="440" y="590" as="targetPoint" />
          </mxGeometry>
        </mxCell>
        <mxCell id="biodw5Qi9P_IrCiAWEpT-38" value="empresa" style="rounded=0;whiteSpace=wrap;html=1;" vertex="1" parent="1">
          <mxGeometry x="1120" y="20" width="120" height="60" as="geometry" />
        </mxCell>
        <mxCell id="biodw5Qi9P_IrCiAWEpT-39" value="correo" style="ellipse;whiteSpace=wrap;html=1;rotation=0;" vertex="1" parent="1">
          <mxGeometry x="1340" y="-130" width="80" height="50" as="geometry" />
        </mxCell>
        <mxCell id="biodw5Qi9P_IrCiAWEpT-40" value="id_empresa" style="ellipse;whiteSpace=wrap;html=1;rotation=0;" vertex="1" parent="1">
          <mxGeometry x="1360" y="-245" width="80" height="50" as="geometry" />
        </mxCell>
        <mxCell id="biodw5Qi9P_IrCiAWEpT-41" value="contraseña" style="ellipse;whiteSpace=wrap;html=1;rotation=0;" vertex="1" parent="1">
          <mxGeometry x="1360" y="-55" width="80" height="60" as="geometry" />
        </mxCell>
        <mxCell id="biodw5Qi9P_IrCiAWEpT-44" value="oferta_empleo" style="rounded=0;whiteSpace=wrap;html=1;" vertex="1" parent="1">
          <mxGeometry x="860" y="470" width="120" height="60" as="geometry" />
        </mxCell>
        <mxCell id="biodw5Qi9P_IrCiAWEpT-45" value="crea" style="shape=rhombus;double=1;perimeter=rhombusPerimeter;whiteSpace=wrap;html=1;align=center;" vertex="1" parent="1">
          <mxGeometry x="1100" y="170" width="120" height="60" as="geometry" />
        </mxCell>
        <mxCell id="biodw5Qi9P_IrCiAWEpT-46" value="" style="edgeStyle=entityRelationEdgeStyle;fontSize=12;html=1;endArrow=ERmany;startArrow=ERmany;rounded=0;entryX=0.5;entryY=0;entryDx=0;entryDy=0;exitX=0.5;exitY=1;exitDx=0;exitDy=0;" edge="1" parent="1" source="biodw5Qi9P_IrCiAWEpT-38" target="biodw5Qi9P_IrCiAWEpT-45">
          <mxGeometry width="100" height="100" relative="1" as="geometry">
            <mxPoint x="450" y="540" as="sourcePoint" />
            <mxPoint x="550" y="440" as="targetPoint" />
          </mxGeometry>
        </mxCell>
        <mxCell id="biodw5Qi9P_IrCiAWEpT-48" value="" style="edgeStyle=entityRelationEdgeStyle;fontSize=12;html=1;endArrow=ERmany;startArrow=ERmany;rounded=0;entryX=1;entryY=0.5;entryDx=0;entryDy=0;exitX=0.5;exitY=1;exitDx=0;exitDy=0;" edge="1" parent="1" source="biodw5Qi9P_IrCiAWEpT-45" target="biodw5Qi9P_IrCiAWEpT-44">
          <mxGeometry width="100" height="100" relative="1" as="geometry">
            <mxPoint x="860" y="740" as="sourcePoint" />
            <mxPoint x="870" y="815" as="targetPoint" />
          </mxGeometry>
        </mxCell>
        <mxCell id="biodw5Qi9P_IrCiAWEpT-49" value="id_oferta" style="ellipse;whiteSpace=wrap;html=1;rotation=0;" vertex="1" parent="1">
          <mxGeometry x="1100" y="550" width="80" height="50" as="geometry" />
        </mxCell>
        <mxCell id="biodw5Qi9P_IrCiAWEpT-50" value="descripcion" style="ellipse;whiteSpace=wrap;html=1;rotation=0;" vertex="1" parent="1">
          <mxGeometry x="827" y="620" width="80" height="50" as="geometry" />
        </mxCell>
        <mxCell id="biodw5Qi9P_IrCiAWEpT-51" value="salario&amp;nbsp;" style="ellipse;whiteSpace=wrap;html=1;rotation=0;" vertex="1" parent="1">
          <mxGeometry x="940" y="575" width="80" height="50" as="geometry" />
        </mxCell>
        <mxCell id="biodw5Qi9P_IrCiAWEpT-53" value="apli_empleo" style="rounded=0;whiteSpace=wrap;html=1;" vertex="1" parent="1">
          <mxGeometry x="510" y="340" width="120" height="60" as="geometry" />
        </mxCell>
        <mxCell id="biodw5Qi9P_IrCiAWEpT-54" value="fecha_apli" style="ellipse;whiteSpace=wrap;html=1;rotation=0;" vertex="1" parent="1">
          <mxGeometry x="680" y="275" width="80" height="50" as="geometry" />
        </mxCell>
        <mxCell id="biodw5Qi9P_IrCiAWEpT-55" value="usuario_id" style="ellipse;whiteSpace=wrap;html=1;rotation=0;" vertex="1" parent="1">
          <mxGeometry x="575" y="250" width="80" height="50" as="geometry" />
        </mxCell>
        <mxCell id="biodw5Qi9P_IrCiAWEpT-56" value="id_oferta_emp" style="ellipse;whiteSpace=wrap;html=1;rotation=0;" vertex="1" parent="1">
          <mxGeometry x="480" y="225" width="80" height="50" as="geometry" />
        </mxCell>
        <mxCell id="J2PW1yxZtl7goZ19ZhKu-1" value="aplican usuarios" style="shape=rhombus;double=1;perimeter=rhombusPerimeter;whiteSpace=wrap;html=1;align=center;" vertex="1" parent="1">
          <mxGeometry x="640" y="460" width="120" height="60" as="geometry" />
        </mxCell>
        <mxCell id="J2PW1yxZtl7goZ19ZhKu-2" value="" style="edgeStyle=entityRelationEdgeStyle;fontSize=12;html=1;endArrow=ERmany;startArrow=ERmany;rounded=0;entryX=-0.008;entryY=0.617;entryDx=0;entryDy=0;exitX=0.5;exitY=0;exitDx=0;exitDy=0;entryPerimeter=0;" edge="1" parent="1" source="J2PW1yxZtl7goZ19ZhKu-1" target="biodw5Qi9P_IrCiAWEpT-44">
          <mxGeometry width="100" height="100" relative="1" as="geometry">
            <mxPoint x="600" y="790" as="sourcePoint" />
            <mxPoint x="700" y="690" as="targetPoint" />
          </mxGeometry>
        </mxCell>
        <mxCell id="J2PW1yxZtl7goZ19ZhKu-3" value="" style="edgeStyle=entityRelationEdgeStyle;fontSize=12;html=1;endArrow=ERmany;startArrow=ERmany;rounded=0;entryX=0.5;entryY=1;entryDx=0;entryDy=0;exitX=0;exitY=0.5;exitDx=0;exitDy=0;" edge="1" parent="1" source="J2PW1yxZtl7goZ19ZhKu-1" target="biodw5Qi9P_IrCiAWEpT-53">
          <mxGeometry width="100" height="100" relative="1" as="geometry">
            <mxPoint x="680" y="790" as="sourcePoint" />
            <mxPoint x="620" y="740" as="targetPoint" />
            <Array as="points">
              <mxPoint x="350" y="740" />
            </Array>
          </mxGeometry>
        </mxCell>
        <mxCell id="W9Fxt1Vn0uLk97-35sOX-6" value="Categoria" style="rounded=0;whiteSpace=wrap;html=1;" vertex="1" parent="1">
          <mxGeometry x="140" y="650" width="120" height="60" as="geometry" />
        </mxCell>
        <mxCell id="W9Fxt1Vn0uLk97-35sOX-7" value="id_categopria" style="ellipse;whiteSpace=wrap;html=1;" vertex="1" parent="1">
          <mxGeometry x="20" y="670" width="80" height="60" as="geometry" />
        </mxCell>
        <mxCell id="W9Fxt1Vn0uLk97-35sOX-8" value="nombre_categoria" style="ellipse;whiteSpace=wrap;html=1;" vertex="1" parent="1">
          <mxGeometry x="20" y="760" width="100" height="65" as="geometry" />
        </mxCell>
        <mxCell id="W9Fxt1Vn0uLk97-35sOX-17" value="sub_categoria" style="whiteSpace=wrap;html=1;align=center;" vertex="1" parent="1">
          <mxGeometry x="410" y="890" width="100" height="40" as="geometry" />
        </mxCell>
        <mxCell id="W9Fxt1Vn0uLk97-35sOX-13" value="busca" style="shape=rhombus;perimeter=rhombusPerimeter;whiteSpace=wrap;html=1;align=center;" vertex="1" parent="1">
          <mxGeometry x="260" y="740" width="120" height="60" as="geometry" />
        </mxCell>
        <mxCell id="W9Fxt1Vn0uLk97-35sOX-26" value="id_subcat&lt;span style=&quot;color: rgba(0, 0, 0, 0); font-family: monospace; font-size: 0px; text-align: start; text-wrap: nowrap;&quot;&gt;%3CmxGraphModel%3E%3Croot%3E%3CmxCell%20id%3D%220%22%2F%3E%3CmxCell%20id%3D%221%22%20parent%3D%220%22%2F%3E%3CmxCell%20id%3D%222%22%20value%3D%22nombre_categoria%22%20style%3D%22ellipse%3BwhiteSpace%3Dwrap%3Bhtml%3D1%3B%22%20vertex%3D%221%22%20parent%3D%221%22%3E%3CmxGeometry%20x%3D%221010%22%20y%3D%22820%22%20width%3D%22100%22%20height%3D%2265%22%20as%3D%22geometry%22%2F%3E%3C%2FmxCell%3E%3C%2Froot%3E%3C%2FmxGraphModel%3E&lt;/span&gt;" style="ellipse;whiteSpace=wrap;html=1;" vertex="1" parent="1">
          <mxGeometry x="300" y="980" width="100" height="65" as="geometry" />
        </mxCell>
        <mxCell id="W9Fxt1Vn0uLk97-35sOX-27" value="nombre_subcat" style="ellipse;whiteSpace=wrap;html=1;" vertex="1" parent="1">
          <mxGeometry x="510" y="1000" width="100" height="65" as="geometry" />
        </mxCell>
        <mxCell id="W9Fxt1Vn0uLk97-35sOX-28" value="" style="endArrow=none;dashed=1;html=1;dashPattern=1 3;strokeWidth=2;rounded=0;exitX=0.667;exitY=0.083;exitDx=0;exitDy=0;exitPerimeter=0;entryX=0.276;entryY=0.954;entryDx=0;entryDy=0;entryPerimeter=0;" edge="1" parent="1" source="biodw5Qi9P_IrCiAWEpT-38" target="biodw5Qi9P_IrCiAWEpT-40">
          <mxGeometry width="50" height="50" relative="1" as="geometry">
            <mxPoint x="830" y="510" as="sourcePoint" />
            <mxPoint x="880" y="460" as="targetPoint" />
          </mxGeometry>
        </mxCell>
        <mxCell id="W9Fxt1Vn0uLk97-35sOX-29" value="" style="endArrow=none;html=1;rounded=0;exitX=1;exitY=0;exitDx=0;exitDy=0;entryX=0;entryY=1;entryDx=0;entryDy=0;" edge="1" parent="1" source="biodw5Qi9P_IrCiAWEpT-38" target="biodw5Qi9P_IrCiAWEpT-39">
          <mxGeometry width="50" height="50" relative="1" as="geometry">
            <mxPoint x="910" y="535" as="sourcePoint" />
            <mxPoint x="960" y="485" as="targetPoint" />
          </mxGeometry>
        </mxCell>
        <mxCell id="W9Fxt1Vn0uLk97-35sOX-30" value="" style="endArrow=none;html=1;rounded=0;exitX=1;exitY=0.25;exitDx=0;exitDy=0;" edge="1" parent="1" source="biodw5Qi9P_IrCiAWEpT-38" target="biodw5Qi9P_IrCiAWEpT-41">
          <mxGeometry width="50" height="50" relative="1" as="geometry">
            <mxPoint x="940" y="590" as="sourcePoint" />
            <mxPoint x="990" y="540" as="targetPoint" />
          </mxGeometry>
        </mxCell>
        <mxCell id="W9Fxt1Vn0uLk97-35sOX-33" value="" style="endArrow=none;dashed=1;html=1;dashPattern=1 3;strokeWidth=2;rounded=0;exitX=0.5;exitY=1;exitDx=0;exitDy=0;entryX=0.383;entryY=-0.067;entryDx=0;entryDy=0;entryPerimeter=0;" edge="1" parent="1" source="W9Fxt1Vn0uLk97-35sOX-17" target="W9Fxt1Vn0uLk97-35sOX-26">
          <mxGeometry width="50" height="50" relative="1" as="geometry">
            <mxPoint x="1040" y="1010" as="sourcePoint" />
            <mxPoint x="1090" y="960" as="targetPoint" />
          </mxGeometry>
        </mxCell>
        <mxCell id="W9Fxt1Vn0uLk97-35sOX-34" value="" style="endArrow=none;html=1;rounded=0;exitX=0.903;exitY=1.016;exitDx=0;exitDy=0;exitPerimeter=0;entryX=0.298;entryY=0.018;entryDx=0;entryDy=0;entryPerimeter=0;" edge="1" parent="1" source="W9Fxt1Vn0uLk97-35sOX-17" target="W9Fxt1Vn0uLk97-35sOX-27">
          <mxGeometry width="50" height="50" relative="1" as="geometry">
            <mxPoint x="990" y="1080" as="sourcePoint" />
            <mxPoint x="1040" y="1030" as="targetPoint" />
          </mxGeometry>
        </mxCell>
        <mxCell id="W9Fxt1Vn0uLk97-35sOX-35" value="" style="endArrow=none;dashed=1;html=1;dashPattern=1 3;strokeWidth=2;rounded=0;entryX=1;entryY=0.25;entryDx=0;entryDy=0;exitX=0;exitY=0.5;exitDx=0;exitDy=0;entryPerimeter=0;" edge="1" parent="1" source="W9Fxt1Vn0uLk97-35sOX-6" target="W9Fxt1Vn0uLk97-35sOX-7">
          <mxGeometry width="50" height="50" relative="1" as="geometry">
            <mxPoint x="920" y="810" as="sourcePoint" />
            <mxPoint x="970" y="760" as="targetPoint" />
          </mxGeometry>
        </mxCell>
        <mxCell id="W9Fxt1Vn0uLk97-35sOX-36" value="" style="endArrow=none;html=1;rounded=0;entryX=0.5;entryY=0;entryDx=0;entryDy=0;exitX=0.163;exitY=1.052;exitDx=0;exitDy=0;exitPerimeter=0;" edge="1" parent="1" source="W9Fxt1Vn0uLk97-35sOX-6" target="W9Fxt1Vn0uLk97-35sOX-8">
          <mxGeometry width="50" height="50" relative="1" as="geometry">
            <mxPoint x="200" y="740" as="sourcePoint" />
            <mxPoint x="1010" y="890" as="targetPoint" />
          </mxGeometry>
        </mxCell>
        <mxCell id="W9Fxt1Vn0uLk97-35sOX-37" value="" style="endArrow=none;dashed=1;html=1;dashPattern=1 3;strokeWidth=2;rounded=0;entryX=0.75;entryY=1;entryDx=0;entryDy=0;exitX=0.627;exitY=0.011;exitDx=0;exitDy=0;exitPerimeter=0;" edge="1" parent="1" source="biodw5Qi9P_IrCiAWEpT-49" target="biodw5Qi9P_IrCiAWEpT-44">
          <mxGeometry width="50" height="50" relative="1" as="geometry">
            <mxPoint x="570" y="800" as="sourcePoint" />
            <mxPoint x="620" y="750" as="targetPoint" />
          </mxGeometry>
        </mxCell>
        <mxCell id="W9Fxt1Vn0uLk97-35sOX-40" value="" style="endArrow=none;dashed=1;html=1;dashPattern=1 3;strokeWidth=2;rounded=0;entryX=0;entryY=0;entryDx=0;entryDy=0;exitX=0;exitY=1;exitDx=0;exitDy=0;" edge="1" parent="1" source="biodw5Qi9P_IrCiAWEpT-56" target="biodw5Qi9P_IrCiAWEpT-53">
          <mxGeometry width="50" height="50" relative="1" as="geometry">
            <mxPoint x="230" y="650" as="sourcePoint" />
            <mxPoint x="280" y="600" as="targetPoint" />
          </mxGeometry>
        </mxCell>
        <mxCell id="W9Fxt1Vn0uLk97-35sOX-42" value="" style="endArrow=none;html=1;rounded=0;exitX=0.03;exitY=0.758;exitDx=0;exitDy=0;entryX=0.648;entryY=0.004;entryDx=0;entryDy=0;entryPerimeter=0;exitPerimeter=0;" edge="1" parent="1" source="biodw5Qi9P_IrCiAWEpT-55" target="biodw5Qi9P_IrCiAWEpT-53">
          <mxGeometry width="50" height="50" relative="1" as="geometry">
            <mxPoint x="270" y="810" as="sourcePoint" />
            <mxPoint x="680" y="320" as="targetPoint" />
          </mxGeometry>
        </mxCell>
        <mxCell id="W9Fxt1Vn0uLk97-35sOX-46" value="" style="endArrow=none;html=1;rounded=0;entryX=0.5;entryY=1;entryDx=0;entryDy=0;entryPerimeter=0;exitX=0.5;exitY=0;exitDx=0;exitDy=0;" edge="1" parent="1" source="biodw5Qi9P_IrCiAWEpT-51" target="biodw5Qi9P_IrCiAWEpT-44">
          <mxGeometry width="50" height="50" relative="1" as="geometry">
            <mxPoint x="560" y="790" as="sourcePoint" />
            <mxPoint x="610" y="740" as="targetPoint" />
          </mxGeometry>
        </mxCell>
        <mxCell id="W9Fxt1Vn0uLk97-35sOX-47" value="" style="endArrow=none;html=1;rounded=0;entryX=0.196;entryY=0.998;entryDx=0;entryDy=0;entryPerimeter=0;exitX=0.68;exitY=0.064;exitDx=0;exitDy=0;exitPerimeter=0;" edge="1" parent="1" source="biodw5Qi9P_IrCiAWEpT-50" target="biodw5Qi9P_IrCiAWEpT-44">
          <mxGeometry width="50" height="50" relative="1" as="geometry">
            <mxPoint x="530" y="810" as="sourcePoint" />
            <mxPoint x="580" y="760" as="targetPoint" />
          </mxGeometry>
        </mxCell>
        <mxCell id="W9Fxt1Vn0uLk97-35sOX-48" value="" style="endArrow=none;dashed=1;html=1;dashPattern=1 3;strokeWidth=2;rounded=0;entryX=0.633;entryY=1.026;entryDx=0;entryDy=0;entryPerimeter=0;" edge="1" parent="1" source="biodw5Qi9P_IrCiAWEpT-10" target="biodw5Qi9P_IrCiAWEpT-11">
          <mxGeometry width="50" height="50" relative="1" as="geometry">
            <mxPoint x="240" y="460" as="sourcePoint" />
            <mxPoint x="290" y="410" as="targetPoint" />
          </mxGeometry>
        </mxCell>
        <mxCell id="W9Fxt1Vn0uLk97-35sOX-49" value="" style="endArrow=none;html=1;rounded=0;entryX=0.971;entryY=0.816;entryDx=0;entryDy=0;entryPerimeter=0;exitX=0;exitY=0;exitDx=0;exitDy=0;" edge="1" parent="1" source="biodw5Qi9P_IrCiAWEpT-10" target="biodw5Qi9P_IrCiAWEpT-14">
          <mxGeometry width="50" height="50" relative="1" as="geometry">
            <mxPoint x="200" y="450" as="sourcePoint" />
            <mxPoint x="250" y="400" as="targetPoint" />
          </mxGeometry>
        </mxCell>
        <mxCell id="W9Fxt1Vn0uLk97-35sOX-51" value="" style="endArrow=none;html=1;rounded=0;entryX=1;entryY=0.5;entryDx=0;entryDy=0;exitX=0;exitY=0.25;exitDx=0;exitDy=0;" edge="1" parent="1" source="biodw5Qi9P_IrCiAWEpT-10" target="biodw5Qi9P_IrCiAWEpT-15">
          <mxGeometry width="50" height="50" relative="1" as="geometry">
            <mxPoint x="170" y="510" as="sourcePoint" />
            <mxPoint x="220" y="460" as="targetPoint" />
          </mxGeometry>
        </mxCell>
        <mxCell id="W9Fxt1Vn0uLk97-35sOX-52" value="" style="endArrow=none;html=1;rounded=0;exitX=0.665;exitY=0.041;exitDx=0;exitDy=0;exitPerimeter=0;entryX=0.622;entryY=0.96;entryDx=0;entryDy=0;entryPerimeter=0;" edge="1" parent="1" source="biodw5Qi9P_IrCiAWEpT-1" target="biodw5Qi9P_IrCiAWEpT-7">
          <mxGeometry width="50" height="50" relative="1" as="geometry">
            <mxPoint x="450" y="360" as="sourcePoint" />
            <mxPoint x="571" y="160" as="targetPoint" />
          </mxGeometry>
        </mxCell>
        <mxCell id="W9Fxt1Vn0uLk97-35sOX-53" value="" style="endArrow=none;html=1;rounded=0;entryX=0;entryY=0.5;entryDx=0;entryDy=0;exitX=1;exitY=0;exitDx=0;exitDy=0;" edge="1" parent="1" source="biodw5Qi9P_IrCiAWEpT-1" target="biodw5Qi9P_IrCiAWEpT-9">
          <mxGeometry width="50" height="50" relative="1" as="geometry">
            <mxPoint x="620" y="430" as="sourcePoint" />
            <mxPoint x="670" y="380" as="targetPoint" />
          </mxGeometry>
        </mxCell>
        <mxCell id="W9Fxt1Vn0uLk97-35sOX-54" value="" style="endArrow=none;html=1;rounded=0;entryX=1;entryY=0.5;entryDx=0;entryDy=0;exitX=0;exitY=0.25;exitDx=0;exitDy=0;" edge="1" parent="1" source="biodw5Qi9P_IrCiAWEpT-1" target="biodw5Qi9P_IrCiAWEpT-13">
          <mxGeometry width="50" height="50" relative="1" as="geometry">
            <mxPoint x="450" y="400" as="sourcePoint" />
            <mxPoint x="500" y="350" as="targetPoint" />
          </mxGeometry>
        </mxCell>
        <mxCell id="W9Fxt1Vn0uLk97-35sOX-55" value="" style="endArrow=none;dashed=1;html=1;dashPattern=1 3;strokeWidth=2;rounded=0;entryX=0.767;entryY=0.99;entryDx=0;entryDy=0;entryPerimeter=0;exitX=0.31;exitY=0.01;exitDx=0;exitDy=0;exitPerimeter=0;" edge="1" parent="1" source="biodw5Qi9P_IrCiAWEpT-1" target="biodw5Qi9P_IrCiAWEpT-6">
          <mxGeometry width="50" height="50" relative="1" as="geometry">
            <mxPoint x="490" y="380" as="sourcePoint" />
            <mxPoint x="540" y="330" as="targetPoint" />
          </mxGeometry>
        </mxCell>
        <mxCell id="qPW8rnB8JesfiI0c2VkE-1" value="mensajes&amp;nbsp;" style="rounded=0;whiteSpace=wrap;html=1;" vertex="1" parent="1">
          <mxGeometry x="660" y="100" width="120" height="60" as="geometry" />
        </mxCell>
        <mxCell id="qPW8rnB8JesfiI0c2VkE-2" value="id_receptor" style="ellipse;whiteSpace=wrap;html=1;" vertex="1" parent="1">
          <mxGeometry x="747" y="10" width="93" height="50" as="geometry" />
        </mxCell>
        <mxCell id="qPW8rnB8JesfiI0c2VkE-4" value="id_mensae" style="ellipse;whiteSpace=wrap;html=1;" vertex="1" parent="1">
          <mxGeometry x="655" y="-10" width="90" height="50" as="geometry" />
        </mxCell>
        <mxCell id="qPW8rnB8JesfiI0c2VkE-5" value="id_interceptor" style="ellipse;whiteSpace=wrap;html=1;" vertex="1" parent="1">
          <mxGeometry x="840" y="50" width="100" height="50" as="geometry" />
        </mxCell>
        <mxCell id="qPW8rnB8JesfiI0c2VkE-6" value="fecha_envio" style="ellipse;whiteSpace=wrap;html=1;" vertex="1" parent="1">
          <mxGeometry x="890" y="180" width="80" height="45" as="geometry" />
        </mxCell>
        <mxCell id="qPW8rnB8JesfiI0c2VkE-7" value="contenido" style="ellipse;whiteSpace=wrap;html=1;" vertex="1" parent="1">
          <mxGeometry x="860" y="120" width="110" height="40" as="geometry" />
        </mxCell>
        <mxCell id="qPW8rnB8JesfiI0c2VkE-8" value="" style="edgeStyle=entityRelationEdgeStyle;fontSize=12;html=1;endArrow=ERmany;startArrow=ERmany;rounded=0;entryX=1;entryY=0.5;entryDx=0;entryDy=0;exitX=0;exitY=0;exitDx=0;exitDy=0;" edge="1" parent="1" source="qPW8rnB8JesfiI0c2VkE-12" target="biodw5Qi9P_IrCiAWEpT-1">
          <mxGeometry width="100" height="100" relative="1" as="geometry">
            <mxPoint x="450" y="600" as="sourcePoint" />
            <mxPoint x="550" y="500" as="targetPoint" />
            <Array as="points">
              <mxPoint x="560" y="240" />
            </Array>
          </mxGeometry>
        </mxCell>
        <mxCell id="qPW8rnB8JesfiI0c2VkE-11" value="" style="edgeStyle=entityRelationEdgeStyle;fontSize=12;html=1;endArrow=ERmany;startArrow=ERmany;rounded=0;entryX=1;entryY=1;entryDx=0;entryDy=0;exitX=0;exitY=0;exitDx=0;exitDy=0;" edge="1" parent="1" source="qPW8rnB8JesfiI0c2VkE-15" target="qPW8rnB8JesfiI0c2VkE-1">
          <mxGeometry width="100" height="100" relative="1" as="geometry">
            <mxPoint x="450" y="600" as="sourcePoint" />
            <mxPoint x="550" y="500" as="targetPoint" />
          </mxGeometry>
        </mxCell>
        <mxCell id="qPW8rnB8JesfiI0c2VkE-13" value="" style="edgeStyle=entityRelationEdgeStyle;fontSize=12;html=1;endArrow=ERmany;startArrow=ERmany;rounded=0;entryX=1;entryY=1;entryDx=0;entryDy=0;exitX=0;exitY=0;exitDx=0;exitDy=0;" edge="1" parent="1" source="qPW8rnB8JesfiI0c2VkE-1" target="qPW8rnB8JesfiI0c2VkE-12">
          <mxGeometry width="100" height="100" relative="1" as="geometry">
            <mxPoint x="680" y="410" as="sourcePoint" />
            <mxPoint x="610" y="300" as="targetPoint" />
          </mxGeometry>
        </mxCell>
        <mxCell id="qPW8rnB8JesfiI0c2VkE-12" value="recibir y enviar" style="shape=rhombus;double=1;perimeter=rhombusPerimeter;whiteSpace=wrap;html=1;align=center;" vertex="1" parent="1">
          <mxGeometry x="510" y="-5" width="120" height="65" as="geometry" />
        </mxCell>
        <mxCell id="qPW8rnB8JesfiI0c2VkE-14" value="" style="edgeStyle=entityRelationEdgeStyle;fontSize=12;html=1;endArrow=ERmany;startArrow=ERmany;rounded=0;entryX=1;entryY=1;entryDx=0;entryDy=0;exitX=0;exitY=0;exitDx=0;exitDy=0;" edge="1" parent="1" source="biodw5Qi9P_IrCiAWEpT-38" target="qPW8rnB8JesfiI0c2VkE-15">
          <mxGeometry width="100" height="100" relative="1" as="geometry">
            <mxPoint x="890" y="520" as="sourcePoint" />
            <mxPoint x="780" y="475" as="targetPoint" />
          </mxGeometry>
        </mxCell>
        <mxCell id="qPW8rnB8JesfiI0c2VkE-15" value="recibir y enviar" style="shape=rhombus;double=1;perimeter=rhombusPerimeter;whiteSpace=wrap;html=1;align=center;" vertex="1" parent="1">
          <mxGeometry x="890" y="260" width="120" height="60" as="geometry" />
        </mxCell>
        <mxCell id="qPW8rnB8JesfiI0c2VkE-18" value="" style="endArrow=none;dashed=1;html=1;dashPattern=1 3;strokeWidth=2;rounded=0;exitX=0.558;exitY=0.033;exitDx=0;exitDy=0;exitPerimeter=0;entryX=0.5;entryY=1;entryDx=0;entryDy=0;" edge="1" parent="1" source="qPW8rnB8JesfiI0c2VkE-1" target="qPW8rnB8JesfiI0c2VkE-4">
          <mxGeometry width="50" height="50" relative="1" as="geometry">
            <mxPoint x="730" y="410" as="sourcePoint" />
            <mxPoint x="780" y="360" as="targetPoint" />
          </mxGeometry>
        </mxCell>
        <mxCell id="qPW8rnB8JesfiI0c2VkE-22" value="" style="endArrow=none;html=1;rounded=0;entryX=0;entryY=1;entryDx=0;entryDy=0;exitX=1;exitY=0.25;exitDx=0;exitDy=0;" edge="1" parent="1" source="qPW8rnB8JesfiI0c2VkE-1" target="qPW8rnB8JesfiI0c2VkE-5">
          <mxGeometry width="50" height="50" relative="1" as="geometry">
            <mxPoint x="830" y="440" as="sourcePoint" />
            <mxPoint x="880" y="390" as="targetPoint" />
          </mxGeometry>
        </mxCell>
        <mxCell id="qPW8rnB8JesfiI0c2VkE-23" value="" style="endArrow=none;html=1;rounded=0;entryX=0;entryY=0.5;entryDx=0;entryDy=0;exitX=1;exitY=0.5;exitDx=0;exitDy=0;" edge="1" parent="1" source="qPW8rnB8JesfiI0c2VkE-1" target="qPW8rnB8JesfiI0c2VkE-7">
          <mxGeometry width="50" height="50" relative="1" as="geometry">
            <mxPoint x="820" y="470" as="sourcePoint" />
            <mxPoint x="870" y="420" as="targetPoint" />
          </mxGeometry>
        </mxCell>
        <mxCell id="qPW8rnB8JesfiI0c2VkE-24" value="" style="endArrow=none;html=1;rounded=0;entryX=0;entryY=0.5;entryDx=0;entryDy=0;exitX=1;exitY=0.75;exitDx=0;exitDy=0;" edge="1" parent="1" source="qPW8rnB8JesfiI0c2VkE-1" target="qPW8rnB8JesfiI0c2VkE-6">
          <mxGeometry width="50" height="50" relative="1" as="geometry">
            <mxPoint x="840" y="500" as="sourcePoint" />
            <mxPoint x="890" y="450" as="targetPoint" />
          </mxGeometry>
        </mxCell>
        <mxCell id="C5BksauptagLf1K7IV6v-1" value="Rol" style="rounded=0;whiteSpace=wrap;html=1;" vertex="1" parent="1">
          <mxGeometry x="640" y="-250" width="120" height="60" as="geometry" />
        </mxCell>
        <mxCell id="C5BksauptagLf1K7IV6v-2" value="id_rol" style="ellipse;whiteSpace=wrap;html=1;" vertex="1" parent="1">
          <mxGeometry x="550" y="-70" width="100" height="50" as="geometry" />
        </mxCell>
        <mxCell id="C5BksauptagLf1K7IV6v-3" value="" style="endArrow=none;html=1;rounded=0;entryX=0.063;entryY=0.74;entryDx=0;entryDy=0;entryPerimeter=0;exitX=1;exitY=0.25;exitDx=0;exitDy=0;" edge="1" parent="1" source="biodw5Qi9P_IrCiAWEpT-1" target="C5BksauptagLf1K7IV6v-2">
          <mxGeometry width="50" height="50" relative="1" as="geometry">
            <mxPoint x="560" y="240" as="sourcePoint" />
            <mxPoint x="730" y="400" as="targetPoint" />
          </mxGeometry>
        </mxCell>
        <mxCell id="C5BksauptagLf1K7IV6v-5" value="id_rol" style="ellipse;whiteSpace=wrap;html=1;" vertex="1" parent="1">
          <mxGeometry x="1400" y="70" width="80" height="40" as="geometry" />
        </mxCell>
        <mxCell id="C5BksauptagLf1K7IV6v-6" value="" style="endArrow=none;html=1;rounded=0;exitX=1;exitY=0.5;exitDx=0;exitDy=0;entryX=-0.016;entryY=0.206;entryDx=0;entryDy=0;entryPerimeter=0;" edge="1" parent="1" source="biodw5Qi9P_IrCiAWEpT-38" target="C5BksauptagLf1K7IV6v-5">
          <mxGeometry width="50" height="50" relative="1" as="geometry">
            <mxPoint x="870" y="480" as="sourcePoint" />
            <mxPoint x="920" y="430" as="targetPoint" />
          </mxGeometry>
        </mxCell>
        <mxCell id="05Y_eu8L9Q8BEa4JaDxe-2" value="id_rol" style="ellipse;whiteSpace=wrap;html=1;" vertex="1" parent="1">
          <mxGeometry x="600" y="-391.25" width="80" height="55" as="geometry" />
        </mxCell>
        <mxCell id="05Y_eu8L9Q8BEa4JaDxe-3" value="rol_admin" style="ellipse;whiteSpace=wrap;html=1;" vertex="1" parent="1">
          <mxGeometry x="500" y="-387.5" width="75" height="47.5" as="geometry" />
        </mxCell>
        <mxCell id="05Y_eu8L9Q8BEa4JaDxe-4" value="rol_usuario" style="ellipse;whiteSpace=wrap;html=1;" vertex="1" parent="1">
          <mxGeometry x="827" y="-330" width="80" height="50" as="geometry" />
        </mxCell>
        <mxCell id="05Y_eu8L9Q8BEa4JaDxe-5" value="rol_empresa" style="ellipse;whiteSpace=wrap;html=1;" vertex="1" parent="1">
          <mxGeometry x="710" y="-390" width="80" height="50" as="geometry" />
        </mxCell>
        <mxCell id="05Y_eu8L9Q8BEa4JaDxe-7" value="" style="endArrow=none;dashed=1;html=1;dashPattern=1 3;strokeWidth=2;rounded=0;entryX=0.25;entryY=0;entryDx=0;entryDy=0;exitX=0.664;exitY=1.021;exitDx=0;exitDy=0;exitPerimeter=0;" edge="1" parent="1" source="05Y_eu8L9Q8BEa4JaDxe-2" target="C5BksauptagLf1K7IV6v-1">
          <mxGeometry width="50" height="50" relative="1" as="geometry">
            <mxPoint x="510" y="590" as="sourcePoint" />
            <mxPoint x="560" y="540" as="targetPoint" />
          </mxGeometry>
        </mxCell>
        <mxCell id="05Y_eu8L9Q8BEa4JaDxe-14" value="" style="endArrow=none;html=1;rounded=0;entryX=0.75;entryY=0;entryDx=0;entryDy=0;exitX=0.5;exitY=1;exitDx=0;exitDy=0;" edge="1" parent="1" source="05Y_eu8L9Q8BEa4JaDxe-5" target="C5BksauptagLf1K7IV6v-1">
          <mxGeometry width="50" height="50" relative="1" as="geometry">
            <mxPoint x="590" y="520" as="sourcePoint" />
            <mxPoint x="680" y="520" as="targetPoint" />
          </mxGeometry>
        </mxCell>
        <mxCell id="C5BksauptagLf1K7IV6v-8" value="" style="endArrow=none;html=1;rounded=0;entryX=0;entryY=0;entryDx=0;entryDy=0;exitX=1;exitY=0.5;exitDx=0;exitDy=0;" edge="1" parent="1" source="05Y_eu8L9Q8BEa4JaDxe-3" target="C5BksauptagLf1K7IV6v-1">
          <mxGeometry width="50" height="50" relative="1" as="geometry">
            <mxPoint x="440" y="434" as="sourcePoint" />
            <mxPoint x="618" y="434" as="targetPoint" />
          </mxGeometry>
        </mxCell>
        <mxCell id="LAh_EPsIf0Jlsf2Ju6DZ-7" value="escoge" style="shape=rhombus;double=1;perimeter=rhombusPerimeter;whiteSpace=wrap;html=1;align=center;" vertex="1" parent="1">
          <mxGeometry x="80" y="545" width="120" height="60" as="geometry" />
        </mxCell>
        <mxCell id="LAh_EPsIf0Jlsf2Ju6DZ-13" value="" style="edgeStyle=entityRelationEdgeStyle;fontSize=12;html=1;endArrow=ERoneToMany;startArrow=ERmandOne;rounded=0;entryX=0.623;entryY=-0.025;entryDx=0;entryDy=0;entryPerimeter=0;exitX=0.5;exitY=1;exitDx=0;exitDy=0;" edge="1" parent="1" source="LAh_EPsIf0Jlsf2Ju6DZ-7" target="W9Fxt1Vn0uLk97-35sOX-6">
          <mxGeometry width="100" height="100" relative="1" as="geometry">
            <mxPoint x="170" y="390" as="sourcePoint" />
            <mxPoint x="195" y="310" as="targetPoint" />
            <Array as="points">
              <mxPoint x="260" y="330" />
              <mxPoint x="280" y="380" />
            </Array>
          </mxGeometry>
        </mxCell>
        <mxCell id="LAh_EPsIf0Jlsf2Ju6DZ-19" value="" style="endArrow=none;html=1;rounded=0;exitX=1;exitY=0;exitDx=0;exitDy=0;entryX=0;entryY=1;entryDx=0;entryDy=0;" edge="1" parent="1" source="biodw5Qi9P_IrCiAWEpT-53" target="biodw5Qi9P_IrCiAWEpT-54">
          <mxGeometry width="50" height="50" relative="1" as="geometry">
            <mxPoint x="660" y="360" as="sourcePoint" />
            <mxPoint x="710" y="310" as="targetPoint" />
          </mxGeometry>
        </mxCell>
        <mxCell id="LAh_EPsIf0Jlsf2Ju6DZ-23" value="" style="endArrow=none;html=1;rounded=0;entryX=1;entryY=0.75;entryDx=0;entryDy=0;exitX=0;exitY=0;exitDx=0;exitDy=0;" edge="1" parent="1" source="05Y_eu8L9Q8BEa4JaDxe-4" target="C5BksauptagLf1K7IV6v-1">
          <mxGeometry width="50" height="50" relative="1" as="geometry">
            <mxPoint x="600" y="260" as="sourcePoint" />
            <mxPoint x="650" y="210" as="targetPoint" />
          </mxGeometry>
        </mxCell>
        <mxCell id="LAh_EPsIf0Jlsf2Ju6DZ-26" value="" style="edgeStyle=entityRelationEdgeStyle;fontSize=12;html=1;endArrow=ERoneToMany;startArrow=ERmandOne;rounded=0;exitX=0.633;exitY=0.971;exitDx=0;exitDy=0;exitPerimeter=0;" edge="1" parent="1" source="W9Fxt1Vn0uLk97-35sOX-6" target="W9Fxt1Vn0uLk97-35sOX-13">
          <mxGeometry width="100" height="100" relative="1" as="geometry">
            <mxPoint x="670" y="330" as="sourcePoint" />
            <mxPoint x="770" y="230" as="targetPoint" />
          </mxGeometry>
        </mxCell>
        <mxCell id="LAh_EPsIf0Jlsf2Ju6DZ-27" value="" style="edgeStyle=entityRelationEdgeStyle;fontSize=12;html=1;endArrow=ERoneToMany;startArrow=ERmandOne;rounded=0;exitX=1;exitY=1;exitDx=0;exitDy=0;" edge="1" parent="1" source="W9Fxt1Vn0uLk97-35sOX-13" target="W9Fxt1Vn0uLk97-35sOX-17">
          <mxGeometry width="100" height="100" relative="1" as="geometry">
            <mxPoint x="300" y="573" as="sourcePoint" />
            <mxPoint x="264" y="625" as="targetPoint" />
          </mxGeometry>
        </mxCell>
        <mxCell id="LAh_EPsIf0Jlsf2Ju6DZ-30" value="" style="edgeStyle=entityRelationEdgeStyle;fontSize=12;html=1;endArrow=ERzeroToMany;startArrow=ERmandOne;rounded=0;exitX=1;exitY=0.75;exitDx=0;exitDy=0;entryX=0;entryY=0.5;entryDx=0;entryDy=0;" edge="1" parent="1" source="LAh_EPsIf0Jlsf2Ju6DZ-17" target="biodw5Qi9P_IrCiAWEpT-53">
          <mxGeometry width="100" height="100" relative="1" as="geometry">
            <mxPoint x="330" y="340" as="sourcePoint" />
            <mxPoint x="430" y="240" as="targetPoint" />
          </mxGeometry>
        </mxCell>
        <mxCell id="LAh_EPsIf0Jlsf2Ju6DZ-32" value="" style="edgeStyle=entityRelationEdgeStyle;fontSize=12;html=1;endArrow=ERzeroToMany;startArrow=ERmandOne;rounded=0;exitX=1;exitY=0.75;exitDx=0;exitDy=0;entryX=0;entryY=0.5;entryDx=0;entryDy=0;" edge="1" parent="1" source="biodw5Qi9P_IrCiAWEpT-10" target="LAh_EPsIf0Jlsf2Ju6DZ-17">
          <mxGeometry width="100" height="100" relative="1" as="geometry">
            <mxPoint x="110" y="240" as="sourcePoint" />
            <mxPoint x="540" y="340" as="targetPoint" />
          </mxGeometry>
        </mxCell>
        <mxCell id="LAh_EPsIf0Jlsf2Ju6DZ-17" value="se postula&amp;nbsp;" style="shape=rhombus;double=1;perimeter=rhombusPerimeter;whiteSpace=wrap;html=1;align=center;" vertex="1" parent="1">
          <mxGeometry x="270" y="270" width="120" height="60" as="geometry" />
        </mxCell>
        <mxCell id="LAh_EPsIf0Jlsf2Ju6DZ-37" value="" style="edgeStyle=entityRelationEdgeStyle;fontSize=12;html=1;endArrow=ERzeroToMany;startArrow=ERmandOne;rounded=0;exitX=0;exitY=0.5;exitDx=0;exitDy=0;entryX=1;entryY=0.25;entryDx=0;entryDy=0;" edge="1" parent="1" source="LAh_EPsIf0Jlsf2Ju6DZ-35" target="biodw5Qi9P_IrCiAWEpT-1">
          <mxGeometry width="100" height="100" relative="1" as="geometry">
            <mxPoint x="730" y="100" as="sourcePoint" />
            <mxPoint x="860" y="-70" as="targetPoint" />
          </mxGeometry>
        </mxCell>
        <mxCell id="LAh_EPsIf0Jlsf2Ju6DZ-39" value="" style="edgeStyle=entityRelationEdgeStyle;fontSize=12;html=1;endArrow=ERzeroToMany;startArrow=ERmandOne;rounded=0;exitX=0;exitY=0.5;exitDx=0;exitDy=0;entryX=1;entryY=0.25;entryDx=0;entryDy=0;" edge="1" parent="1" source="C5BksauptagLf1K7IV6v-1" target="LAh_EPsIf0Jlsf2Ju6DZ-35">
          <mxGeometry width="100" height="100" relative="1" as="geometry">
            <mxPoint x="640" y="-220" as="sourcePoint" />
            <mxPoint x="414" y="-35" as="targetPoint" />
          </mxGeometry>
        </mxCell>
        <mxCell id="LAh_EPsIf0Jlsf2Ju6DZ-35" value="se asigna rol&lt;span style=&quot;color: rgba(0, 0, 0, 0); font-family: monospace; font-size: 0px; text-align: start; text-wrap: nowrap;&quot;&gt;%3CmxGraphModel%3E%3Croot%3E%3CmxCell%20id%3D%220%22%2F%3E%3CmxCell%20id%3D%221%22%20parent%3D%220%22%2F%3E%3CmxCell%20id%3D%222%22%20value%3D%22%22%20style%3D%22edgeStyle%3DentityRelationEdgeStyle%3BfontSize%3D12%3Bhtml%3D1%3BendArrow%3DERoneToMany%3BstartArrow%3DERmandOne%3Brounded%3D0%3BexitX%3D0.633%3BexitY%3D0.971%3BexitDx%3D0%3BexitDy%3D0%3BexitPerimeter%3D0%3BentryX%3D0.419%3BentryY%3D-0.005%3BentryDx%3D0%3BentryDy%3D0%3BentryPerimeter%3D0%3B%22%20edge%3D%221%22%20parent%3D%221%22%3E%3CmxGeometry%20width%3D%22100%22%20height%3D%22100%22%20relative%3D%221%22%20as%3D%22geometry%22%3E%3CmxPoint%20x%3D%22226%22%20y%3D%22468%22%20as%3D%22sourcePoint%22%2F%3E%3CmxPoint%20x%3D%22190%22%20y%3D%22520%22%20as%3D%22targetPoint%22%2F%3E%3C%2FmxGeometry%3E%3C%2FmxCell%3E%3C%2Froot%3E%3C%2FmxGraphModel%3E&lt;/span&gt;" style="shape=rhombus;double=1;perimeter=rhombusPerimeter;whiteSpace=wrap;html=1;align=center;" vertex="1" parent="1">
          <mxGeometry x="477.5" y="-160" width="120" height="60" as="geometry" />
        </mxCell>
        <mxCell id="LAh_EPsIf0Jlsf2Ju6DZ-40" value="" style="edgeStyle=entityRelationEdgeStyle;fontSize=12;html=1;endArrow=ERzeroToMany;startArrow=ERmandOne;rounded=0;exitX=1;exitY=1;exitDx=0;exitDy=0;entryX=0;entryY=0.5;entryDx=0;entryDy=0;" edge="1" parent="1" source="LAh_EPsIf0Jlsf2Ju6DZ-36" target="biodw5Qi9P_IrCiAWEpT-38">
          <mxGeometry width="100" height="100" relative="1" as="geometry">
            <mxPoint x="802" y="-150" as="sourcePoint" />
            <mxPoint x="740" y="-70" as="targetPoint" />
            <Array as="points">
              <mxPoint x="842" y="-60" />
            </Array>
          </mxGeometry>
        </mxCell>
        <mxCell id="LAh_EPsIf0Jlsf2Ju6DZ-41" value="" style="edgeStyle=entityRelationEdgeStyle;fontSize=12;html=1;endArrow=ERzeroToMany;startArrow=ERmandOne;rounded=0;exitX=1;exitY=1;exitDx=0;exitDy=0;entryX=0;entryY=0.5;entryDx=0;entryDy=0;" edge="1" parent="1" source="C5BksauptagLf1K7IV6v-1" target="LAh_EPsIf0Jlsf2Ju6DZ-36">
          <mxGeometry width="100" height="100" relative="1" as="geometry">
            <mxPoint x="760" y="-190" as="sourcePoint" />
            <mxPoint x="1000" y="-170" as="targetPoint" />
            <Array as="points" />
          </mxGeometry>
        </mxCell>
        <mxCell id="LAh_EPsIf0Jlsf2Ju6DZ-36" value="se asigna rol&lt;span style=&quot;color: rgba(0, 0, 0, 0); font-family: monospace; font-size: 0px; text-align: start; text-wrap: nowrap;&quot;&gt;%3CmxGraphModel%3E%3Croot%3E%3CmxCell%20id%3D%220%22%2F%3E%3CmxCell%20id%3D%221%22%20parent%3D%220%22%2F%3E%3CmxCell%20id%3D%222%22%20value%3D%22%22%20style%3D%22edgeStyle%3DentityRelationEdgeStyle%3BfontSize%3D12%3Bhtml%3D1%3BendArrow%3DERoneToMany%3BstartArrow%3DERmandOne%3Brounded%3D0%3BexitX%3D0.633%3BexitY%3D0.971%3BexitDx%3D0%3BexitDy%3D0%3BexitPerimeter%3D0%3BentryX%3D0.419%3BentryY%3D-0.005%3BentryDx%3D0%3BentryDy%3D0%3BentryPerimeter%3D0%3B%22%20edge%3D%221%22%20parent%3D%221%22%3E%3CmxGeometry%20width%3D%22100%22%20height%3D%22100%22%20relative%3D%221%22%20as%3D%22geometry%22%3E%3CmxPoint%20x%3D%22226%22%20y%3D%22468%22%20as%3D%22sourcePoint%22%2F%3E%3CmxPoint%20x%3D%22190%22%20y%3D%22520%22%20as%3D%22targetPoint%22%2F%3E%3C%2FmxGeometry%3E%3C%2FmxCell%3E%3C%2Froot%3E%3C%2FmxGraphModel%3E&lt;/span&gt;" style="shape=rhombus;double=1;perimeter=rhombusPerimeter;whiteSpace=wrap;html=1;align=center;" vertex="1" parent="1">
          <mxGeometry x="820" y="-165" width="120" height="60" as="geometry" />
        </mxCell>
        <mxCell id="3LAah7iiJTbR9orkl6Om-1" value="&lt;font style=&quot;vertical-align: inherit;&quot;&gt;&lt;font style=&quot;vertical-align: inherit;&quot;&gt;Frtalezas&lt;/font&gt;&lt;/font&gt;" style="ellipse;whiteSpace=wrap;html=1;" vertex="1" parent="1">
          <mxGeometry x="-180" y="165" width="90" height="60" as="geometry" />
        </mxCell>
        <mxCell id="3LAah7iiJTbR9orkl6Om-2" value="&lt;font style=&quot;vertical-align: inherit;&quot;&gt;&lt;font style=&quot;vertical-align: inherit;&quot;&gt;&lt;font style=&quot;vertical-align: inherit;&quot;&gt;&lt;font style=&quot;vertical-align: inherit;&quot;&gt;debilidadees&lt;/font&gt;&lt;/font&gt;&lt;/font&gt;&lt;/font&gt;" style="ellipse;whiteSpace=wrap;html=1;" vertex="1" parent="1">
          <mxGeometry x="-170" y="255" width="90" height="40" as="geometry" />
        </mxCell>
        <mxCell id="3LAah7iiJTbR9orkl6Om-3" value="" style="endArrow=none;html=1;rounded=0;exitX=1.007;exitY=0.348;exitDx=0;exitDy=0;exitPerimeter=0;entryX=0;entryY=0.5;entryDx=0;entryDy=0;" edge="1" parent="1" source="3LAah7iiJTbR9orkl6Om-1" target="biodw5Qi9P_IrCiAWEpT-10">
          <mxGeometry width="50" height="50" relative="1" as="geometry">
            <mxPoint x="10" y="300" as="sourcePoint" />
            <mxPoint x="60" y="250" as="targetPoint" />
          </mxGeometry>
        </mxCell>
        <mxCell id="3LAah7iiJTbR9orkl6Om-5" value="" style="endArrow=none;html=1;rounded=0;entryX=0;entryY=0.75;entryDx=0;entryDy=0;exitX=0.625;exitY=-0.033;exitDx=0;exitDy=0;exitPerimeter=0;" edge="1" parent="1" source="3LAah7iiJTbR9orkl6Om-2" target="biodw5Qi9P_IrCiAWEpT-10">
          <mxGeometry width="50" height="50" relative="1" as="geometry">
            <mxPoint x="25" y="320" as="sourcePoint" />
            <mxPoint x="75" y="270" as="targetPoint" />
          </mxGeometry>
        </mxCell>
        <mxCell id="3LAah7iiJTbR9orkl6Om-7" value="&lt;font style=&quot;vertical-align: inherit;&quot;&gt;&lt;font style=&quot;vertical-align: inherit;&quot;&gt;ootros_estudios&lt;/font&gt;&lt;/font&gt;" style="rounded=0;whiteSpace=wrap;html=1;" vertex="1" parent="1">
          <mxGeometry x="140" y="430" width="120" height="60" as="geometry" />
        </mxCell>
        <mxCell id="3LAah7iiJTbR9orkl6Om-9" value="experiencia_laboral" style="whiteSpace=wrap;html=1;align=center;" vertex="1" parent="1">
          <mxGeometry x="-90" y="450" width="100" height="40" as="geometry" />
        </mxCell>
        <mxCell id="3LAah7iiJTbR9orkl6Om-15" value="&lt;span style=&quot;border-bottom: 1px dotted&quot;&gt;institucion&lt;/span&gt;" style="ellipse;whiteSpace=wrap;html=1;align=center;" vertex="1" parent="1">
          <mxGeometry x="314" y="360" width="100" height="40" as="geometry" />
        </mxCell>
        <mxCell id="3LAah7iiJTbR9orkl6Om-16" value="id_estudios" style="ellipse;whiteSpace=wrap;html=1;align=center;" vertex="1" parent="1">
          <mxGeometry x="210" y="330" width="100" height="40" as="geometry" />
        </mxCell>
        <mxCell id="3LAah7iiJTbR9orkl6Om-17" value="fecha_in" style="ellipse;whiteSpace=wrap;html=1;align=center;" vertex="1" parent="1">
          <mxGeometry x="335" y="410" width="100" height="40" as="geometry" />
        </mxCell>
        <mxCell id="3LAah7iiJTbR9orkl6Om-18" value="titulo" style="ellipse;whiteSpace=wrap;html=1;align=center;" vertex="1" parent="1">
          <mxGeometry x="280" y="525" width="100" height="40" as="geometry" />
        </mxCell>
        <mxCell id="3LAah7iiJTbR9orkl6Om-19" value="fecha_fin" style="ellipse;whiteSpace=wrap;html=1;align=center;" vertex="1" parent="1">
          <mxGeometry x="300" y="460" width="100" height="40" as="geometry" />
        </mxCell>
        <mxCell id="3LAah7iiJTbR9orkl6Om-20" value="id_experiencia" style="ellipse;whiteSpace=wrap;html=1;align=center;" vertex="1" parent="1">
          <mxGeometry x="-185" y="380" width="100" height="40" as="geometry" />
        </mxCell>
        <mxCell id="3LAah7iiJTbR9orkl6Om-21" value="empresa" style="ellipse;whiteSpace=wrap;html=1;align=center;" vertex="1" parent="1">
          <mxGeometry x="-220" y="490" width="100" height="40" as="geometry" />
        </mxCell>
        <mxCell id="3LAah7iiJTbR9orkl6Om-22" value="fecha_fin" style="ellipse;whiteSpace=wrap;html=1;align=center;" vertex="1" parent="1">
          <mxGeometry x="-70" y="550" width="100" height="40" as="geometry" />
        </mxCell>
        <mxCell id="3LAah7iiJTbR9orkl6Om-23" value="cargo" style="ellipse;whiteSpace=wrap;html=1;align=center;" vertex="1" parent="1">
          <mxGeometry x="-230" y="440" width="100" height="40" as="geometry" />
        </mxCell>
        <mxCell id="3LAah7iiJTbR9orkl6Om-24" value="fecha_inicio" style="ellipse;whiteSpace=wrap;html=1;align=center;" vertex="1" parent="1">
          <mxGeometry x="-180" y="535" width="100" height="40" as="geometry" />
        </mxCell>
        <mxCell id="3LAah7iiJTbR9orkl6Om-27" value="" style="edgeStyle=entityRelationEdgeStyle;fontSize=12;html=1;endArrow=ERoneToMany;rounded=0;exitX=0.691;exitY=0.969;exitDx=0;exitDy=0;entryX=0.57;entryY=-0.041;entryDx=0;entryDy=0;entryPerimeter=0;exitPerimeter=0;" edge="1" parent="1" source="3LAah7iiJTbR9orkl6Om-8" target="3LAah7iiJTbR9orkl6Om-7">
          <mxGeometry width="100" height="100" relative="1" as="geometry">
            <mxPoint x="-10" y="255" as="sourcePoint" />
            <mxPoint x="480" y="360" as="targetPoint" />
            <Array as="points">
              <mxPoint x="73" y="260" />
            </Array>
          </mxGeometry>
        </mxCell>
        <mxCell id="3LAah7iiJTbR9orkl6Om-28" value="" style="edgeStyle=entityRelationEdgeStyle;fontSize=12;html=1;endArrow=ERoneToMany;rounded=0;exitX=0.691;exitY=0.969;exitDx=0;exitDy=0;entryX=0.57;entryY=-0.041;entryDx=0;entryDy=0;entryPerimeter=0;exitPerimeter=0;" edge="1" parent="1" source="biodw5Qi9P_IrCiAWEpT-10" target="3LAah7iiJTbR9orkl6Om-8">
          <mxGeometry width="100" height="100" relative="1" as="geometry">
            <mxPoint x="73" y="243" as="sourcePoint" />
            <mxPoint x="148" y="428" as="targetPoint" />
            <Array as="points" />
          </mxGeometry>
        </mxCell>
        <mxCell id="3LAah7iiJTbR9orkl6Om-8" value="&lt;div&gt;&lt;font style=&quot;vertical-align: inherit;&quot;&gt;&lt;font style=&quot;vertical-align: inherit;&quot;&gt;agrega&lt;/font&gt;&lt;/font&gt;&lt;/div&gt;" style="shape=rhombus;double=1;perimeter=rhombusPerimeter;whiteSpace=wrap;html=1;align=center;" vertex="1" parent="1">
          <mxGeometry x="90" y="280" width="120" height="60" as="geometry" />
        </mxCell>
        <mxCell id="3LAah7iiJTbR9orkl6Om-30" value="" style="edgeStyle=entityRelationEdgeStyle;fontSize=12;html=1;endArrow=ERoneToMany;rounded=0;exitX=0.167;exitY=1.083;exitDx=0;exitDy=0;exitPerimeter=0;entryX=0.607;entryY=-0.033;entryDx=0;entryDy=0;entryPerimeter=0;" edge="1" parent="1" source="3LAah7iiJTbR9orkl6Om-13" target="3LAah7iiJTbR9orkl6Om-9">
          <mxGeometry width="100" height="100" relative="1" as="geometry">
            <mxPoint x="-10" y="400" as="sourcePoint" />
            <mxPoint x="50" y="410" as="targetPoint" />
          </mxGeometry>
        </mxCell>
        <mxCell id="3LAah7iiJTbR9orkl6Om-31" value="" style="edgeStyle=entityRelationEdgeStyle;fontSize=12;html=1;endArrow=ERoneToMany;rounded=0;exitX=0.167;exitY=1.083;exitDx=0;exitDy=0;exitPerimeter=0;entryX=0.607;entryY=-0.033;entryDx=0;entryDy=0;entryPerimeter=0;" edge="1" parent="1" source="biodw5Qi9P_IrCiAWEpT-10" target="3LAah7iiJTbR9orkl6Om-13">
          <mxGeometry width="100" height="100" relative="1" as="geometry">
            <mxPoint x="10" y="250" as="sourcePoint" />
            <mxPoint x="-29" y="449" as="targetPoint" />
          </mxGeometry>
        </mxCell>
        <mxCell id="3LAah7iiJTbR9orkl6Om-13" value="&lt;div&gt;&lt;font style=&quot;vertical-align: inherit;&quot;&gt;&lt;font style=&quot;vertical-align: inherit;&quot;&gt;agrega&lt;/font&gt;&lt;/font&gt;&lt;/div&gt;" style="shape=rhombus;double=1;perimeter=rhombusPerimeter;whiteSpace=wrap;html=1;align=center;" vertex="1" parent="1">
          <mxGeometry x="-130" y="310" width="120" height="60" as="geometry" />
        </mxCell>
        <mxCell id="3LAah7iiJTbR9orkl6Om-32" value="" style="endArrow=none;dashed=1;html=1;dashPattern=1 3;strokeWidth=2;rounded=0;exitX=1;exitY=0.5;exitDx=0;exitDy=0;entryX=0.1;entryY=0;entryDx=0;entryDy=0;entryPerimeter=0;" edge="1" parent="1" source="3LAah7iiJTbR9orkl6Om-20" target="3LAah7iiJTbR9orkl6Om-9">
          <mxGeometry width="50" height="50" relative="1" as="geometry">
            <mxPoint x="470" y="420" as="sourcePoint" />
            <mxPoint x="520" y="370" as="targetPoint" />
          </mxGeometry>
        </mxCell>
        <mxCell id="3LAah7iiJTbR9orkl6Om-33" value="" style="endArrow=none;dashed=1;html=1;dashPattern=1 3;strokeWidth=2;rounded=0;exitX=0.922;exitY=0.034;exitDx=0;exitDy=0;exitPerimeter=0;entryX=0;entryY=0.5;entryDx=0;entryDy=0;" edge="1" parent="1" source="3LAah7iiJTbR9orkl6Om-7" target="3LAah7iiJTbR9orkl6Om-16">
          <mxGeometry width="50" height="50" relative="1" as="geometry">
            <mxPoint x="470" y="420" as="sourcePoint" />
            <mxPoint x="520" y="370" as="targetPoint" />
          </mxGeometry>
        </mxCell>
        <mxCell id="3LAah7iiJTbR9orkl6Om-36" value="" style="endArrow=none;html=1;rounded=0;exitX=1;exitY=0.25;exitDx=0;exitDy=0;entryX=0;entryY=0.5;entryDx=0;entryDy=0;" edge="1" parent="1" source="3LAah7iiJTbR9orkl6Om-7" target="3LAah7iiJTbR9orkl6Om-15">
          <mxGeometry width="50" height="50" relative="1" as="geometry">
            <mxPoint x="470" y="420" as="sourcePoint" />
            <mxPoint x="520" y="370" as="targetPoint" />
          </mxGeometry>
        </mxCell>
        <mxCell id="3LAah7iiJTbR9orkl6Om-37" value="" style="endArrow=none;html=1;rounded=0;exitX=1;exitY=0.5;exitDx=0;exitDy=0;entryX=0.073;entryY=0.286;entryDx=0;entryDy=0;entryPerimeter=0;" edge="1" parent="1" source="3LAah7iiJTbR9orkl6Om-7" target="3LAah7iiJTbR9orkl6Om-19">
          <mxGeometry width="50" height="50" relative="1" as="geometry">
            <mxPoint x="210" y="455" as="sourcePoint" />
            <mxPoint x="268" y="410" as="targetPoint" />
          </mxGeometry>
        </mxCell>
        <mxCell id="3LAah7iiJTbR9orkl6Om-38" value="" style="endArrow=none;html=1;rounded=0;exitX=1;exitY=0.5;exitDx=0;exitDy=0;entryX=0;entryY=0;entryDx=0;entryDy=0;" edge="1" parent="1" source="3LAah7iiJTbR9orkl6Om-7" target="3LAah7iiJTbR9orkl6Om-17">
          <mxGeometry width="50" height="50" relative="1" as="geometry">
            <mxPoint x="220" y="465" as="sourcePoint" />
            <mxPoint x="278" y="420" as="targetPoint" />
          </mxGeometry>
        </mxCell>
        <mxCell id="3LAah7iiJTbR9orkl6Om-40" value="" style="endArrow=none;html=1;rounded=0;exitX=1;exitY=0.75;exitDx=0;exitDy=0;entryX=0.262;entryY=0.078;entryDx=0;entryDy=0;entryPerimeter=0;" edge="1" parent="1" source="3LAah7iiJTbR9orkl6Om-7" target="3LAah7iiJTbR9orkl6Om-18">
          <mxGeometry width="50" height="50" relative="1" as="geometry">
            <mxPoint x="230" y="475" as="sourcePoint" />
            <mxPoint x="288" y="430" as="targetPoint" />
          </mxGeometry>
        </mxCell>
        <mxCell id="3LAah7iiJTbR9orkl6Om-41" value="" style="endArrow=none;html=1;rounded=0;exitX=1;exitY=0.5;exitDx=0;exitDy=0;entryX=0;entryY=0.5;entryDx=0;entryDy=0;" edge="1" parent="1" source="3LAah7iiJTbR9orkl6Om-23" target="3LAah7iiJTbR9orkl6Om-9">
          <mxGeometry width="50" height="50" relative="1" as="geometry">
            <mxPoint x="240" y="485" as="sourcePoint" />
            <mxPoint x="298" y="440" as="targetPoint" />
          </mxGeometry>
        </mxCell>
        <mxCell id="3LAah7iiJTbR9orkl6Om-42" value="" style="endArrow=none;html=1;rounded=0;exitX=0.94;exitY=0.245;exitDx=0;exitDy=0;entryX=0.25;entryY=1;entryDx=0;entryDy=0;exitPerimeter=0;" edge="1" parent="1" source="3LAah7iiJTbR9orkl6Om-21" target="3LAah7iiJTbR9orkl6Om-9">
          <mxGeometry width="50" height="50" relative="1" as="geometry">
            <mxPoint x="250" y="495" as="sourcePoint" />
            <mxPoint x="308" y="450" as="targetPoint" />
          </mxGeometry>
        </mxCell>
        <mxCell id="3LAah7iiJTbR9orkl6Om-43" value="" style="endArrow=none;html=1;rounded=0;exitX=0.5;exitY=0;exitDx=0;exitDy=0;entryX=0.429;entryY=1.05;entryDx=0;entryDy=0;entryPerimeter=0;" edge="1" parent="1" source="3LAah7iiJTbR9orkl6Om-24" target="3LAah7iiJTbR9orkl6Om-9">
          <mxGeometry width="50" height="50" relative="1" as="geometry">
            <mxPoint x="260" y="505" as="sourcePoint" />
            <mxPoint x="318" y="460" as="targetPoint" />
          </mxGeometry>
        </mxCell>
        <mxCell id="3LAah7iiJTbR9orkl6Om-44" value="" style="endArrow=none;html=1;rounded=0;exitX=0.5;exitY=0;exitDx=0;exitDy=0;entryX=0.75;entryY=1;entryDx=0;entryDy=0;" edge="1" parent="1" source="3LAah7iiJTbR9orkl6Om-22" target="3LAah7iiJTbR9orkl6Om-9">
          <mxGeometry width="50" height="50" relative="1" as="geometry">
            <mxPoint x="270" y="515" as="sourcePoint" />
            <mxPoint x="328" y="470" as="targetPoint" />
          </mxGeometry>
        </mxCell>
        <mxCell id="3LAah7iiJTbR9orkl6Om-45" value="" style="edgeStyle=entityRelationEdgeStyle;fontSize=12;html=1;endArrow=ERoneToMany;rounded=0;exitX=0.5;exitY=1;exitDx=0;exitDy=0;entryX=0.5;entryY=0;entryDx=0;entryDy=0;" edge="1" parent="1" source="biodw5Qi9P_IrCiAWEpT-10" target="LAh_EPsIf0Jlsf2Ju6DZ-7">
          <mxGeometry width="100" height="100" relative="1" as="geometry">
            <mxPoint x="510" y="680" as="sourcePoint" />
            <mxPoint x="610" y="580" as="targetPoint" />
          </mxGeometry>
        </mxCell>
        <mxCell id="TpoZszjiHzwS2Skjg3GO-1" value="rol_empleado" style="ellipse;whiteSpace=wrap;html=1;" vertex="1" parent="1">
          <mxGeometry x="410" y="-320" width="100" height="40" as="geometry" />
        </mxCell>
        <mxCell id="TpoZszjiHzwS2Skjg3GO-2" value="" style="endArrow=none;html=1;rounded=0;entryX=0;entryY=0.5;entryDx=0;entryDy=0;exitX=1;exitY=0.5;exitDx=0;exitDy=0;" edge="1" parent="1" source="TpoZszjiHzwS2Skjg3GO-1" target="C5BksauptagLf1K7IV6v-1">
          <mxGeometry width="50" height="50" relative="1" as="geometry">
            <mxPoint x="585" y="-354" as="sourcePoint" />
            <mxPoint x="650" y="-240" as="targetPoint" />
          </mxGeometry>
        </mxCell>
        <mxCell id="WWKFb911I1xa1fVw6o6a-7" value="" style="edgeStyle=entityRelationEdgeStyle;fontSize=12;html=1;endArrow=ERmany;startArrow=ERmany;rounded=0;exitX=1;exitY=0.5;exitDx=0;exitDy=0;entryX=0;entryY=1;entryDx=0;entryDy=0;" edge="1" parent="1" source="WWKFb911I1xa1fVw6o6a-1" target="biodw5Qi9P_IrCiAWEpT-44">
          <mxGeometry width="100" height="100" relative="1" as="geometry">
            <mxPoint x="620" y="790" as="sourcePoint" />
            <mxPoint x="720" y="690" as="targetPoint" />
          </mxGeometry>
        </mxCell>
        <mxCell id="WWKFb911I1xa1fVw6o6a-8" value="" style="edgeStyle=entityRelationEdgeStyle;fontSize=12;html=1;endArrow=ERmany;startArrow=ERmany;rounded=0;exitX=1;exitY=0.5;exitDx=0;exitDy=0;entryX=0;entryY=1;entryDx=0;entryDy=0;" edge="1" parent="1" source="W9Fxt1Vn0uLk97-35sOX-6" target="WWKFb911I1xa1fVw6o6a-1">
          <mxGeometry width="100" height="100" relative="1" as="geometry">
            <mxPoint x="260" y="680" as="sourcePoint" />
            <mxPoint x="860" y="530" as="targetPoint" />
          </mxGeometry>
        </mxCell>
        <mxCell id="WWKFb911I1xa1fVw6o6a-1" value="escoge" style="shape=rhombus;perimeter=rhombusPerimeter;whiteSpace=wrap;html=1;align=center;" vertex="1" parent="1">
          <mxGeometry x="470" y="585" width="120" height="60" as="geometry" />
        </mxCell>
      </root>
    </mxGraphModel>
  </diagram>
</mxfile>
